<svg xmlns="http://www.w3.org/2000/svg" version="1" width="100" height="100" viewBox="0 0 80 80"><title>Instagram icon</title><g fill="#5a3d1e"><path d="M16.126 10.646l-.056 9.537-.903.056c-.508.037-1.034-.038-1.185-.17-.225-.187-.263-1.69-.263-9.387 0-10.42.187-9.425-1.693-8.843l-1.034.338-.094 8.993-.095 9.013-.997.056c-.583.037-1.128-.038-1.278-.17-.226-.187-.263-1.54-.263-8.166 0-7.323-.02-7.96-.32-7.96-.17 0-1.128.825-2.144 1.84-1.617 1.632-1.936 2.083-2.764 3.81-1.58 3.23-1.6 3.305-1.674 10.72l-.094 6.534h12.616c6.94 0 12.617-.075 12.617-.15 0-.244 2.237-2.01 3.59-2.816 1.637-.995 3.536-1.784 5.548-2.31 2.463-.638 6.393-.62 8.93.057 3.01.806 5.962 2.327 8.2 4.223l1.165.995h25.064l-.076-6.627c-.075-6.176-.112-6.702-.507-8.016-.79-2.666-1.75-4.206-4.044-6.496-2.294-2.272-3.817-3.23-6.505-4.055l-1.41-.432-22.506-.056-22.526-.056-.037 9.538-.056 9.537-.902.056c-.508.037-1.034-.038-1.185-.17-.225-.187-.263-1.708-.263-9.575V1.127h-2.82l-.038 9.52zm54-2.29c.32.168.734.62.94 1.032.34.676.377 1.107.377 5.2 0 6.46.207 6.252-6.186 6.252-4.85 0-5.434-.13-6.054-1.352-.358-.694-.376-1.032-.32-5.425l.056-4.713.695-.638.715-.638h4.606c3.78 0 4.72.056 5.17.28z"/><path d="M37.88 25.102c-6.618.92-11.996 6.215-13.067 12.88-.32 1.933-.15 5.07.376 6.89.732 2.572 1.73 4.187 3.947 6.383 2.2 2.216 3.63 3.136 5.867 3.85 8.8 2.778 17.825-2.104 20.1-10.89.507-1.953.545-5.633.094-7.416-.828-3.212-1.843-4.958-4.344-7.417-2.425-2.422-4.512-3.51-7.765-4.15-1.3-.244-3.893-.32-5.21-.13zm4.137 4.656c1.467.3 4.4 1.69 5.265 2.497 1.523 1.408 2.764 3.436 3.403 5.595.47 1.54.414 4.093-.094 5.708-1.428 4.524-5.753 7.753-10.36 7.753-1.69 0-2.99-.336-4.888-1.238-3.666-1.727-6.073-5.576-6.073-9.706-.02-5.05 3.647-9.5 8.723-10.59 1.58-.356 2.426-.356 4.024-.018z"/><path d="M1.347 47.632l.057 18.925.432 1.408c.827 2.684 1.786 4.205 4.06 6.496 2.333 2.31 3.894 3.267 6.62 4.056l1.485.432h52.083l1.487-.432c2.99-.864 5.076-2.16 7.314-4.544 1.56-1.652 2.84-3.867 3.554-6.195l.432-1.408.056-18.832.057-18.812H67.4c-10.078 0-11.563.037-11.563.28 0 .15.3.752.677 1.315 3.553 5.578 3.91 12.73.94 18.663-3.046 6.046-8.65 9.932-15.475 10.72-5.49.64-11.846-1.727-15.795-5.894-1.58-1.654-2.463-2.968-3.63-5.427-1.37-2.835-1.766-4.675-1.766-8.017 0-2.197.074-3.042.413-4.393.49-1.972 1.39-4.112 2.35-5.614.376-.602.696-1.203.696-1.353 0-.244-1.468-.28-11.47-.28H1.29l.057 18.905z"/></g></svg>