<svg class="custom-icon" xmlns="http://www.w3.org/2000/svg" viewBox="0 0 100 100" style="height:100px;width:100px"><path class="inner-shape" d="M99 19.428a40.032 40.032 0 0 1-11.546 3.184 20.277 20.277 0 0 0 8.84-11.19 40.123 40.123 0 0 1-12.767 4.91A20.023 20.023 0 0 0 68.85 9.943c-11.103 0-20.106 9.054-20.106 20.223 0 1.585.177 3.128.52 4.61-16.71-.846-31.525-8.896-41.442-21.132A20.232 20.232 0 0 0 5.1 23.813c0 7.017 3.55 13.208 8.945 16.834a19.91 19.91 0 0 1-9.106-2.53c-.003.086-.003.17-.003.256 0 9.8 6.93 17.972 16.13 19.83a19.993 19.993 0 0 1-9.08.348c2.558 8.035 9.983 13.883 18.78 14.046a40.194 40.194 0 0 1-24.97 8.657c-1.623 0-3.223-.096-4.796-.282 8.9 5.74 19.468 9.088 30.82 9.088 36.983 0 57.207-30.817 57.207-57.543 0-.877-.02-1.748-.06-2.617a41.064 41.064 0 0 0 10.034-10.47z" fill="#5a3d1e"/></svg>